<?xml version="1.0" standalone="no"?>
<!DOCTYPE svg PUBLIC "-//W3C//DTD SVG 20010904//EN"
 "http://www.w3.org/TR/2001/REC-SVG-20010904/DTD/svg10.dtd">
<svg version="1.0" xmlns="http://www.w3.org/2000/svg"
 width="210.000000pt" height="210.000000pt" viewBox="0 0 210.000000 210.000000"
 preserveAspectRatio="xMidYMid meet">
<metadata>
Created by potrace 1.14, written by Peter Selinger 2001-2017
</metadata>
<g transform="translate(0.000000,210.000000) scale(0.100000,-0.100000)"
fill="#000000" stroke="none">
<path d="M929 2089 c-12 -7 -13 -20 -5 -109 3 -26 2 -26 84 -21 12 0 22 7 22
14 0 9 -12 11 -41 9 -36 -4 -40 -2 -37 14 2 11 10 20 18 20 8 1 23 2 33 3 9 0
17 7 17 15 0 9 -8 12 -25 8 -13 -2 -32 -1 -42 2 -22 9 -4 26 30 29 15 1 25 7
24 12 -2 12 -61 15 -78 4z"/>
<path d="M1072 2050 c-2 -27 -5 -58 -7 -69 -2 -12 2 -21 8 -22 7 0 31 -3 55
-5 33 -3 42 -1 42 11 0 9 -6 15 -12 14 -42 -5 -66 2 -64 19 3 13 12 17 40 15
25 -1 36 3 36 13 0 9 -11 14 -35 14 -24 0 -35 5 -35 15 0 11 11 15 40 15 22 0
40 5 40 10 0 6 -6 10 -12 11 -7 0 -31 2 -53 4 l-40 4 -3 -49z"/>
<path d="M835 2068 c-3 -8 -1 -27 5 -42 15 -41 14 -41 -31 -2 -60 51 -70 40
-46 -44 13 -44 25 -66 33 -63 9 3 10 13 3 36 -14 50 -11 53 24 19 36 -35 72
-43 63 -14 -2 9 -10 37 -17 62 -15 53 -26 69 -34 48z"/>
<path d="M1235 2068 c-24 -73 -33 -118 -23 -124 11 -7 28 13 28 34 0 26 30 10
38 -20 5 -19 16 -34 26 -36 18 -4 18 5 -1 56 -3 6 2 12 10 12 18 0 30 30 22
52 -3 8 -23 20 -44 27 -48 14 -51 14 -56 -1z m66 -28 c5 0 9 -7 9 -15 0 -15
-40 -22 -53 -9 -11 11 5 35 20 30 8 -3 19 -6 24 -6z"/>
<path d="M1379 1998 c-37 -99 -37 -97 -23 -102 8 -3 21 18 38 60 30 75 30 74
12 74 -8 0 -20 -15 -27 -32z"/>
<path d="M677 2013 c-8 -14 45 -123 60 -123 16 0 13 15 -18 86 -19 42 -32 53
-42 37z"/>
<path d="M1432 1941 c-36 -67 -27 -92 12 -35 l25 37 3 -53 c2 -29 8 -55 14
-57 6 -2 27 23 47 56 27 46 32 61 21 65 -9 3 -21 -8 -33 -32 -11 -20 -21 -35
-22 -32 0 3 -2 25 -4 50 -4 62 -3 60 -17 60 -7 0 -28 -27 -46 -59z"/>
<path d="M584 1980 c-24 -9 -54 -47 -54 -68 0 -8 9 -27 21 -43 27 -38 75 -40
109 -4 20 21 22 28 12 50 -13 27 -31 32 -50 13 -17 -17 -15 -31 3 -25 21 9 28
-9 10 -27 -24 -23 -75 4 -75 40 0 21 31 45 50 39 10 -3 21 -1 24 4 10 15 -26
30 -50 21z"/>
<path d="M453 1884 c-3 -9 -2 -19 3 -23 5 -3 17 -16 27 -28 l19 -22 -47 15
c-75 22 -83 7 -29 -54 33 -38 50 -50 57 -43 8 8 2 20 -19 42 l-29 31 30 -8
c17 -4 40 -10 51 -15 22 -8 34 -3 34 12 0 5 -20 31 -45 59 -36 41 -47 48 -52
34z"/>
<path d="M1599 1876 c-74 -37 -56 -127 29 -142 6 -1 19 7 27 19 14 19 13 23
-4 40 -11 11 -24 16 -31 12 -9 -6 -8 -10 5 -18 24 -13 -2 -29 -27 -16 -26 14
-23 55 6 74 20 14 28 14 45 3 11 -7 20 -20 18 -28 -1 -8 5 -15 13 -15 18 0 15
33 -7 57 -20 22 -47 28 -74 14z"/>
<path d="M310 1741 c-14 -20 -26 -39 -28 -42 -1 -3 22 -25 52 -47 l55 -42 30
42 c36 49 29 75 -8 30 -19 -24 -30 -29 -41 -22 -12 8 -11 13 8 39 27 38 10 54
-19 17 -37 -48 -54 -26 -19 24 15 21 17 29 7 33 -7 3 -24 -12 -37 -32z"/>
<path d="M977 1668 c-30 -51 -65 -112 -78 -135 l-24 -43 -202 0 c-111 0 -204
-4 -207 -8 -2 -4 40 -86 95 -182 56 -96 97 -180 94 -188 -3 -8 -30 -56 -59
-106 -29 -50 -64 -109 -76 -131 -12 -22 -31 -54 -41 -72 -15 -25 -17 -33 -7
-39 7 -5 101 -9 208 -9 l195 0 78 -135 c42 -74 82 -135 89 -135 9 0 148 224
161 259 1 5 95 9 207 10 137 1 205 5 207 12 2 6 -40 87 -93 180 -54 93 -97
174 -97 179 0 6 44 85 97 177 53 93 96 172 96 178 0 6 -79 11 -206 12 l-206 3
-77 132 c-42 73 -81 133 -88 133 -7 0 -37 -42 -66 -92z m150 -174 c-2 -3 -43
-4 -91 -2 l-86 3 46 79 46 79 45 -77 c25 -43 43 -80 40 -82z m-306 -98 c-10
-17 -40 -68 -66 -113 -45 -79 -65 -105 -65 -84 0 5 -27 55 -60 111 -33 56 -60
105 -60 109 0 5 61 8 135 8 l135 0 -19 -31z m431 -106 c43 -74 82 -142 87
-150 7 -12 -13 -55 -78 -165 l-87 -150 -127 -3 c-137 -3 -138 -3 -168 53 -9
17 -44 79 -79 139 l-62 108 19 37 c11 20 51 88 88 152 l68 117 131 -2 131 -1
77 -135z m239 86 c-16 -28 -38 -67 -49 -86 -10 -19 -28 -50 -39 -68 l-21 -33
-65 113 c-36 62 -63 116 -61 119 2 4 62 7 134 7 l130 0 -29 -52z m-3 -498 l32
-58 -136 0 c-75 0 -134 3 -132 8 2 4 32 58 67 119 l64 112 36 -62 c20 -34 51
-88 69 -119z m-750 116 c18 -31 32 -60 32 -64 0 -5 3 -10 8 -12 11 -5 55 -89
49 -94 -6 -7 -249 -6 -255 0 -5 6 120 226 128 226 3 0 20 -25 38 -56z m353
-316 c-24 -43 -47 -75 -51 -73 -5 3 -26 36 -48 75 -46 79 -49 75 67 75 l76 0
-44 -77z"/>
<path d="M1030 1235 l0 -125 -80 0 -80 0 0 -70 0 -70 180 0 180 0 0 70 0 70
-80 0 -80 0 0 125 c0 118 -1 125 -20 125 -19 0 -20 -7 -20 -125z"/>
<path d="M1751 1709 c-51 -20 -66 -74 -31 -109 21 -21 60 -27 60 -10 0 6 -11
15 -24 20 -13 5 -27 14 -31 19 -7 13 38 61 58 61 20 0 38 -25 32 -42 -4 -9 0
-18 9 -21 8 -3 16 0 19 7 6 16 -19 76 -32 76 -5 0 -15 2 -23 4 -7 3 -24 0 -37
-5z"/>
<path d="M210 1585 c0 -19 116 -79 125 -64 8 13 12 10 -57 48 -65 36 -68 36
-68 16z"/>
<path d="M1809 1551 c-35 -28 -40 -53 -18 -90 15 -25 25 -31 54 -31 88 0 105
119 19 136 -21 4 -37 0 -55 -15z m81 -30 c13 -25 5 -46 -25 -59 -19 -9 -28 -8
-46 7 -26 21 -21 47 13 61 35 14 46 12 58 -9z"/>
<path d="M177 1514 c-10 -10 2 -24 22 -24 9 0 25 -6 35 -13 16 -12 16 -13 -1
-15 -10 -1 -27 -4 -38 -6 -11 -2 -25 -5 -31 -5 -7 -1 -14 -7 -17 -15 -4 -9 9
-19 41 -31 26 -9 55 -20 64 -25 11 -6 19 -6 23 0 10 16 -3 28 -35 35 -35 8
-31 25 6 25 29 0 64 16 64 30 0 5 -25 18 -55 29 -61 23 -68 24 -78 15z"/>
<path d="M1885 1401 c-33 -9 -60 -20 -60 -26 1 -5 4 -27 8 -47 10 -49 30 -49
25 -1 -3 37 -2 37 42 46 50 10 69 22 55 35 -6 4 -37 1 -70 -7z"/>
<path d="M127 1357 c-4 -10 13 -18 64 -29 38 -8 69 -11 69 -6 0 4 0 11 0 16 0
4 -3 7 -7 8 -14 1 -88 16 -104 20 -9 3 -19 -2 -22 -9z"/>
<path d="M195 1280 c-3 -5 -19 -7 -34 -4 -35 7 -54 -19 -49 -69 3 -31 4 -32
61 -37 32 -3 63 -3 68 1 6 3 9 28 7 54 -2 39 -7 49 -25 56 -13 5 -25 4 -28 -1z
m-29 -52 c-1 -13 -8 -24 -18 -26 -20 -4 -23 10 -7 39 13 24 27 17 25 -13z m64
-2 c0 -23 -22 -41 -34 -29 -3 4 -6 17 -6 30 0 16 6 23 20 23 14 0 20 -7 20
-24z"/>
<path d="M1913 1262 l-63 -3 0 -49 c0 -38 4 -50 15 -50 11 0 14 8 9 35 l-5 35
43 1 c24 1 50 2 59 2 15 0 21 22 8 29 -2 2 -32 2 -66 0z"/>
<path d="M1855 1126 c-2 -6 -6 -30 -8 -53 -3 -32 -1 -43 9 -43 9 0 14 12 14
33 0 38 6 48 26 40 8 -3 14 -19 14 -39 0 -19 5 -34 10 -34 10 0 13 14 13 53 0
11 6 17 16 15 12 -3 15 -13 13 -41 -3 -26 0 -37 10 -37 10 0 14 14 13 48 0 26
-3 49 -7 51 -18 12 -120 17 -123 7z"/>
<path d="M205 1125 c-5 -2 -28 -6 -50 -7 -32 -3 -41 -8 -43 -25 -3 -19 3 -23
45 -29 l48 -7 -42 -19 c-31 -13 -43 -25 -43 -40 0 -19 4 -20 53 -14 28 3 60 6
70 6 9 0 17 7 17 15 0 13 -9 15 -47 10 l-48 -5 43 18 c24 10 43 21 43 25 -1 4
-1 12 -1 17 0 6 -19 10 -42 10 -47 0 -45 9 3 19 35 7 53 32 22 30 -10 0 -22
-2 -28 -4z"/>
<path d="M1840 970 c-42 -42 -33 -110 14 -110 17 0 25 7 28 25 6 29 -9 45 -18
21 -9 -24 -24 -19 -24 8 0 37 24 51 60 36 22 -9 30 -19 30 -37 0 -13 -7 -26
-15 -29 -19 -8 -20 -34 -1 -34 31 0 55 65 36 100 -18 34 -84 46 -110 20z"/>
<path d="M195 934 c-79 -29 -75 -55 6 -29 43 15 53 15 60 4 16 -26 9 -35 -41
-53 -28 -10 -50 -24 -50 -32 0 -17 -4 -17 56 3 74 25 88 58 46 106 -18 20 -24
20 -77 1z"/>
<path d="M1765 800 c-19 -37 -22 -50 -11 -50 7 0 19 14 26 31 8 19 18 28 27
25 8 -4 16 -6 18 -6 2 0 -3 -16 -10 -34 -19 -44 -2 -58 20 -16 8 16 19 30 24
30 18 0 19 -14 5 -42 -9 -18 -12 -34 -7 -39 6 -6 19 9 32 36 13 26 21 48 20
49 -2 2 -30 17 -62 34 l-57 31 -25 -49z"/>
<path d="M305 820 c-3 -5 1 -21 10 -34 16 -24 15 -25 -9 -40 -14 -9 -38 -23
-52 -32 -17 -10 -23 -19 -16 -26 6 -6 27 0 58 18 68 37 68 37 45 83 -23 43
-26 47 -36 31z"/>
<path d="M482 489 c10 -56 3 -68 -37 -69 -11 0 -30 -3 -42 -6 -21 -6 -19 -9
25 -37 26 -17 49 -32 51 -34 3 -2 -1 -9 -7 -15 -7 -7 -12 -17 -12 -24 0 -15
157 -87 245 -112 150 -43 187 -47 380 -46 144 1 172 5 275 32 121 31 300 107
300 126 0 7 -6 18 -12 25 -8 8 -9 15 -3 17 6 2 30 17 54 33 l43 29 -56 13
c-60 13 -60 14 -47 71 5 20 7 39 4 42 -3 2 -23 -8 -46 -24 -23 -15 -68 -41
-100 -56 -49 -24 -57 -32 -55 -54 3 -22 -3 -27 -51 -43 -103 -34 -196 -49
-316 -50 -129 -1 -172 4 -273 29 -109 27 -133 41 -126 68 5 21 -2 27 -58 54
-35 17 -82 43 -104 57 l-41 25 9 -51z"/>
<path d="M950 60 c0 -5 7 -7 15 -4 8 4 15 2 15 -4 0 -5 -7 -15 -15 -22 -22
-18 -18 -30 8 -29 12 0 16 3 10 6 -10 3 -9 10 2 27 8 12 12 26 8 29 -10 11
-43 8 -43 -3z"/>
<path d="M1004 46 c-7 -29 1 -46 21 -46 16 0 31 43 20 59 -11 19 -34 12 -41
-13z m29 -17 c-4 -15 -8 -17 -13 -8 -10 15 -1 41 10 34 5 -3 6 -14 3 -26z"/>
<path d="M1067 63 c-4 -3 -7 -17 -7 -30 0 -27 28 -42 41 -22 8 12 10 12 18 0
14 -21 41 -5 41 24 0 29 -27 45 -42 24 -7 -11 -11 -11 -15 -1 -5 13 -25 16
-36 5z m23 -29 c0 -14 -4 -23 -9 -19 -11 6 -10 45 1 45 4 0 8 -12 8 -26z m51
-11 c-9 -16 -10 -14 -11 12 0 21 3 26 11 18 8 -8 8 -16 0 -30z"/>
</g>
</svg>
