<svg xmlns="http://www.w3.org/2000/svg" version="1.1" xmlns:xlink="http://www.w3.org/1999/xlink" width="512" height="512" x="0" y="0" viewBox="0 0 128 128" style="enable-background:new 0 0 512 512" xml:space="preserve" class=""><g><path d="M64 128C28.711 128 0 99.289 0 64S28.711 0 64 0s64 28.711 64 64-28.711 64-64 64zM64 8C33.121 8 8 33.121 8 64s25.121 56 56 56 56-25.121 56-56S94.879 8 64 8zm-9.172 78.828 40-40c1.563-1.563 1.563-4.094 0-5.656s-4.094-1.563-5.656 0L52 78.344 38.828 65.172c-1.563-1.563-4.094-1.563-5.656 0s-1.563 4.094 0 5.656l16 16C49.953 87.609 50.977 88 52 88s2.047-.391 2.828-1.172z" fill="#379a43" opacity="1" data-original="#000000" class=""></path></g></svg>