<svg xmlns="http://www.w3.org/2000/svg" version="1.1" xmlns:xlink="http://www.w3.org/1999/xlink" width="512" height="512" x="0" y="0" viewBox="0 0 398 398" style="enable-background:new 0 0 512 512" xml:space="preserve" class=""><g><path d="M309 137.868h53v204h-53zM241 137.868h52v204h-52zM201.5 9.133 13 89.899v31.968h377V89.899L201.5 9.133zm-.261 92c-17.032 0-30.84-13.808-30.84-30.84s13.807-30.84 30.84-30.84 30.84 13.807 30.84 30.84c-.019 17.024-13.816 30.82-30.84 30.84z" fill="#000000" opacity="1" data-original="#000000" class=""></path><circle cx="201.24" cy="70.288" r="14.84" fill="#000000" opacity="1" data-original="#000000" class=""></circle><path d="M0 357.867h398v31H0zM41 137.868h48v204H41zM105 137.868h52v204h-52zM173 137.868h52v204h-52z" fill="#000000" opacity="1" data-original="#000000" class=""></path></g></svg>