<svg xmlns="http://www.w3.org/2000/svg" version="1.1" xmlns:xlink="http://www.w3.org/1999/xlink" width="512" height="512" x="0" y="0" viewBox="0 0 35.296 35.296" style="enable-background:new 0 0 512 512" xml:space="preserve" class=""><g><path d="M32.521 26.21a2.16 2.16 0 0 1-3.057 0l-1.351-1.35c-6.26 5.793-14.302 7.537-19.108 4.283L3.69 34.46a2.161 2.161 0 0 1-3.058 0 2.164 2.164 0 0 1 0-3.059l5.533-5.531C3.772 21 5.652 13.624 11.049 7.79L9.7 6.442a2.163 2.163 0 1 1 3.058-3.059l3.463 3.465L22.233.836a2.16 2.16 0 0 1 3.057 0 2.158 2.158 0 0 1 0 3.057l-6.013 6.012 6.316 6.316 6.012-6.012a2.16 2.16 0 1 1 3.058 3.056l-6.013 6.013 3.871 3.871a2.163 2.163 0 0 1 0 3.061z" fill="#000000" opacity="1" data-original="#000000"></path></g></svg>